<svg width="69" height="50" viewBox="0 0 69 50" fill="none" xmlns="http://www.w3.org/2000/svg">
<path d="M19.0473 12.536L16.8073 9.784L16.7753 9.752H16.8073L19.7193 6.232C21.4473 4.088 23.4633 2.168 25.7033 0.535999H21.2553C21.0312 1.912 20.4553 3.16 19.5913 4.248L15.9113 8.632L12.2952 4.248C11.4313 3.192 10.8553 1.912 10.6313 0.535999H1.51125C3.97525 2.456 6.21525 4.632 8.19925 7.032L10.4392 9.784H10.4713L10.4392 9.816L7.52725 13.336C5.79925 15.48 3.78325 17.4 1.54325 19.032H6.08725C6.31125 17.656 6.88725 16.408 7.75125 15.32L11.3993 10.936L14.9833 15.32C15.8473 16.376 16.4233 17.656 16.6473 19.032H25.7673C23.3033 17.112 21.0633 14.936 19.0793 12.536H19.0473ZM43.315 0.535999C43.571 1.88 43.411 3.288 42.835 4.536L38.675 13.784L34.739 4.952C34.259 3.896 34.035 2.776 34.035 1.656C34.035 1.272 34.067 0.887999 34.131 0.504H25.971C27.635 2.264 29.011 4.28 30.003 6.488L34.579 16.728C35.219 18.136 35.699 20.216 35.059 21.624C35.059 21.624 33.779 24.568 31.827 24.568C30.643 24.568 30.803 21.272 32.147 19.96H29.267C28.115 19.96 27.155 20.92 27.187 22.072C27.219 23.16 27.667 24.12 28.371 24.824C29.075 25.528 30.515 25.976 31.603 26.008C33.779 26.008 35.347 24.728 36.243 22.744L43.667 6.168C44.627 4.056 45.939 2.136 47.571 0.504L43.315 0.535999ZM63.2723 17.592H52.2003L66.5683 4.888V0.535999H48.6803V4.312C48.6803 4.408 48.7123 4.408 48.7763 4.376C50.0243 3.416 51.4003 1.976 52.9683 1.976H63.1443L48.7123 14.68V19.032H66.6323V15.256C65.8643 16.312 64.6163 17.592 63.3043 17.592H63.2723ZM20.3083 44.04L20.2763 35.496C20.2763 32.648 21.1403 31.144 21.4923 30.664L21.6203 30.504H13.9403L14.0043 30.568C14.1003 30.696 14.2923 30.952 14.5163 31.368L14.5483 31.432C14.9003 32.232 15.2843 33.512 15.2843 35.432L15.3162 40.808C15.3162 45.544 14.1323 47.944 10.2283 47.944C7.15625 47.944 6.00425 45.544 6.00425 40.808V35.464C6.00425 32.616 6.86825 31.112 7.22025 30.632L7.34825 30.472H0.11625L0.18025 30.536C0.27625 30.664 0.46825 30.92 0.69225 31.336L0.72425 31.4C1.07625 32.2 1.46025 33.48 1.46025 35.4V39.688C1.46025 45 3.73225 49.32 10.2283 49.32C11.2843 49.32 12.6603 49.128 13.4283 48.808C16.0522 47.688 19.0283 47.752 21.6203 48.904C21.5563 48.808 21.2683 48.424 20.9803 47.688C20.6603 46.856 20.3403 45.608 20.3403 43.976L20.3083 44.04ZM43.9058 35.496C43.9058 32.2 45.2498 30.536 45.2498 30.536C42.6258 31.72 39.6498 31.784 37.0258 30.664C36.2258 30.344 34.8498 30.152 33.7938 30.152C27.2977 30.152 23.6818 34.472 23.6818 39.784C23.6818 45.096 27.2977 49.416 33.7938 49.416C36.4498 49.416 37.7618 48.168 38.9138 46.568C38.9138 47.912 40.4498 49 41.7938 49H45.2178C45.2178 49 43.8738 47.4 43.8738 44.52L43.9058 35.496ZM33.7618 47.976C30.6898 47.976 28.6418 44.52 28.6418 39.752C28.6418 35.016 30.6898 31.528 33.7618 31.528C37.6658 31.528 38.8818 35.016 38.8818 39.752C38.8818 42.824 37.6658 47.944 33.7618 47.944V47.976ZM61.735 48.872L61.607 49.032H68.839L68.775 48.968C68.679 48.84 68.487 48.584 68.263 48.168L68.231 48.104C67.879 47.304 67.495 46.024 67.495 44.104V39.816C67.495 34.504 65.223 30.184 58.727 30.184C57.671 30.184 56.295 30.376 55.527 30.696C52.903 31.816 49.927 31.752 47.335 30.6C47.399 30.696 47.687 31.08 47.975 31.816C48.295 32.648 48.615 33.896 48.615 35.528L48.647 44.072C48.647 46.92 47.783 48.424 47.431 48.904L47.303 49.064H54.983L54.919 49C54.823 48.872 54.631 48.616 54.407 48.2L54.375 48.136C54.023 47.336 53.639 46.056 53.639 44.136L53.607 38.76C53.607 34.024 54.791 31.624 58.695 31.624C61.767 31.624 62.919 34.024 62.919 38.76V44.104C62.919 46.952 62.055 48.456 61.703 48.936L61.735 48.872Z" fill="white"/>
</svg>
